<mxfile host="app.diagrams.net" modified="2023-07-06T02:53:28.916Z" agent="Mozilla/5.0 (Windows NT 10.0; Win64; x64) AppleWebKit/537.36 (KHTML, like Gecko) Chrome/114.0.0.0 Safari/537.36" version="21.5.2" etag="3rlYm2TyCPDV55QHhVOq" type="github">
  <diagram name="第 1 页" id="F1v1mnq8PEB_u2LopnJj">
    <mxGraphModel>
      <root>
        <mxCell id="0" />
        <mxCell id="1" parent="0" />
      </root>
    </mxGraphModel>
  </diagram>
</mxfile>
